<svg width="500" height="500" viewBox="0 0 500 500" fill="none" xmlns="http://www.w3.org/2000/svg">
<g clip-path="url(#clip0_2771_69)">
<path d="M131.065 276.071L281.433 182.872H359.374C361.764 182.872 363.969 184.71 363.969 187.468C363.969 189.673 363.05 190.593 361.764 191.328L287.867 235.446C283.087 238.203 281.433 244.085 281.433 248.313V276.071H375.367V114.49C375.367 111.365 372.977 108.791 369.3 108.791H279.778L129.778 201.622V276.071H131.065Z" fill="black"/>
<path d="M22.9779 329.012L0 388.754H15.8088L19.8529 377.541H45.4044L49.4485 388.754H65.8088L42.4632 329.196H22.9779V329.012ZM24.2647 364.857L32.7206 341.512L40.9926 364.857H24.2647Z" fill="black"/>
<path d="M109.008 365.776C109.008 373.497 104.229 376.622 96.1409 376.622C88.2364 376.622 83.0894 373.313 83.0894 365.776V328.828H67.832V367.431C67.832 384.71 83.2732 390.041 96.1409 390.041C109.008 390.041 124.266 384.71 124.266 367.431V328.828H109.008V365.776Z" fill="black"/>
<path d="M131.065 341.879H150.367V388.571H165.624V341.879H184.926V329.012H131.065V341.879Z" fill="black"/>
<path d="M289.889 329.012H261.948V388.571H289.889C311.397 388.571 317.279 380.666 317.279 358.423C317.279 337.468 311.581 329.012 289.889 329.012ZM289.338 375.703H277.206V341.879H289.338C298.897 341.879 301.838 344.453 301.838 358.423C301.654 371.107 298.529 375.703 289.338 375.703Z" fill="black"/>
<path d="M500 329.012H481.801L460.11 353.276V329.012H444.853V388.571H460.11V365.96L480.698 388.571H500L472.242 359.159L500 329.012Z" fill="black"/>
<path d="M325.919 388.754H374.081V375.887H341.176V365.041H367.647V351.99H341.176V341.879H374.081V329.012H325.919V388.754Z" fill="black"/>
<path d="M220.588 327.357C198.897 327.357 187.5 340.776 187.5 358.607C187.5 376.622 198.713 390.041 220.588 390.041C242.463 390.041 253.676 376.622 253.676 358.607C253.676 340.776 242.279 327.357 220.588 327.357ZM220.588 376.806C209.375 376.806 203.125 370.004 203.125 358.791C203.125 347.762 209.375 340.96 220.588 340.96C231.985 340.96 238.051 347.945 238.051 358.791C238.051 369.82 231.801 376.806 220.588 376.806Z" fill="black"/>
<path d="M420.22 353.644L406.25 352.173C398.161 351.254 396.139 349.232 396.139 346.475C396.139 343.35 400.367 340.592 408.456 340.592C416.36 340.592 420.404 343.534 421.139 347.945H436.029C435.294 335.445 424.632 327.541 409.191 327.541C390.809 327.541 381.434 334.894 381.434 347.762C381.434 358.24 387.5 363.203 400.367 364.49L414.522 365.96C419.853 366.512 422.426 368.717 422.426 371.291C422.426 374.416 418.75 377.173 410.11 377.173C400 377.173 396.139 374.6 395.404 369.637H380.698C381.434 383.24 390.257 390.409 409.559 390.409C427.206 390.409 436.948 382.688 436.948 371.107C436.948 360.813 431.25 354.931 420.22 353.644Z" fill="black"/>
</g>
<defs>
<clipPath id="clip0_2771_69">
<rect width="500" height="500" fill="white"/>
</clipPath>
</defs>
</svg>
