<svg width="500" height="500" viewBox="0 0 500 500" fill="none" xmlns="http://www.w3.org/2000/svg">
<g clip-path="url(#clip0_2771_83)">
<path d="M269.78 112.035C269.221 113.415 268.758 114.839 268.674 116.324C261.995 142.731 255.301 169.141 248.759 195.579C262.951 195.603 277.142 195.566 291.333 195.585C284.667 169.403 277.779 143.274 271.101 117.097C270.789 115.381 270.326 113.696 269.78 112.035ZM235.277 80.0239C258.358 80.0183 281.448 79.9577 304.53 80.0542C325.271 144.721 346.247 209.321 367 273.983C349.387 273.964 331.775 274.037 314.162 273.946C310.129 260.374 306.006 246.825 301.967 233.26C301.629 232.688 301.823 231.332 300.719 231.642C280.225 231.605 259.725 231.629 239.232 231.629C235.374 245.725 231.466 259.809 227.726 273.935C210.484 274.037 193.241 274.001 176 273.951C195.786 209.316 215.557 144.673 235.277 80.0239Z" fill="white"/>
<path d="M176.085 391.196C182.453 385.715 191.318 383.809 199.672 384.015C207.372 384.122 215.597 385.795 221.384 391.003C226.285 395.303 228.47 401.767 228.644 408.015C222.637 408.033 216.638 408.026 210.631 408.015C210.399 404.293 208.723 400.256 204.955 398.675C200.028 396.647 193.445 397.151 189.786 401.232C187.477 403.858 186.747 407.404 186.728 410.758C186.676 418.835 186.722 426.911 186.703 434.987C186.688 438.316 187 441.832 188.919 444.7C190.769 447.605 194.266 449.248 197.739 449.416C201.243 449.621 205.161 449.056 207.716 446.516C209.926 444.307 210.508 441.14 210.761 438.198C216.838 438.217 222.922 438.172 229 438.222C228.54 444.7 226.504 451.482 221.416 456.019C215.461 461.413 206.939 462.937 199.025 462.987C190.575 463.199 181.658 460.903 175.49 455.098C169.853 449.933 167.137 442.373 167.02 434.987C166.988 427.334 167.001 419.675 167.014 412.021C167.117 404.331 169.949 396.361 176.085 391.196Z" fill="white"/>
<path d="M269.36 398.388C266.636 409.121 264.078 419.898 261.413 430.643C266.758 430.65 272.11 430.662 277.455 430.638C274.762 419.885 272.006 409.152 269.36 398.388ZM256.307 386.024C265.023 385.999 273.74 385.986 282.464 386.024C290.269 411.025 298.17 436.001 306 460.996C299.348 461.001 292.695 461.001 286.049 460.996C284.47 455.521 282.852 450.058 281.261 444.588C273.456 444.588 265.645 444.564 257.84 444.595C256.371 450.058 254.948 455.533 253.479 460.996C246.981 460.996 240.491 461.008 234 460.989C241.403 435.995 248.917 411.025 256.307 386.024Z" fill="white"/>
<path d="M335.498 399.478C335.512 415.491 335.485 431.509 335.512 447.522C340.091 447.423 344.897 447.999 349.244 446.282C352.83 444.962 355.345 441.776 356.365 438.292C358.139 432.179 357.236 425.75 357.461 419.489C357.467 413.712 357.816 406.918 353.139 402.542C348.353 398.326 341.401 399.745 335.498 399.478ZM316 386.033C322.509 386.008 329.017 386.027 335.524 386.02C342.832 386.076 350.347 385.53 357.403 387.787C365.118 389.964 371.761 395.543 374.599 402.833C378.005 410.879 376.702 419.7 376.966 428.15C377.25 436.512 375.179 445.446 368.967 451.625C362.415 458.321 352.54 460.794 343.258 460.98C334.171 461.012 325.089 460.999 316 460.987C316.007 436.004 316.013 411.015 316 386.033Z" fill="white"/>
<path d="M61.1349 11.1167C67.7606 7.43561 74.2508 3.52195 80.9736 -1.9122e-05C81 117.38 80.9472 234.754 81 352.133C70.183 358.248 59.4009 364.424 48.5647 370.508C46.9926 371.34 45.5187 372.325 44.0245 373.279C29.213 381.258 14.7852 389.868 0.0647588 398C-0.0647568 280.622 0.0647578 163.241 0 45.8668C20.3076 34.1822 40.7758 22.7347 61.1349 11.1167Z" fill="#E85984"/>
<path d="M269.911 111C270.362 112.969 270.743 114.966 271 117C270.597 116.207 270.185 115.428 269.767 114.662C269.573 115.016 269.188 115.73 269 116.084C269.069 114.324 269.45 112.636 269.911 111Z" fill="#E85984"/>
<path d="M235.7 79.1588C216.085 144.112 196.418 209.059 176.739 274.001C193.889 274.05 211.04 274.086 228.189 273.984C231.91 259.79 235.797 245.641 239.633 231.479C260.018 231.479 280.409 231.454 300.793 231.491C301.893 231.179 301.699 232.542 302.035 233.117C306.054 246.747 310.155 260.359 314.166 273.995C331.685 274.086 349.204 274.013 366.721 274.032C346.078 209.066 325.216 144.161 304.585 79.1892C281.626 79.091 258.659 79.1531 235.7 79.1588ZM81 1.74258e-05C132.916 0.20199 184.844 0.0315983 236.761 0.0857586H433.382C436.855 0.103812 440.426 -0.11619 443.784 0.935423C454.704 3.88152 462.895 13.9361 462.966 24.687C463.024 42.4978 462.992 60.3087 462.985 78.1195C462.979 168.714 462.946 259.307 462.999 349.902C462.875 350.617 463.327 352.249 461.95 351.968C334.977 351.992 208.005 351.973 81.0263 351.98C80.9737 234.651 81.0263 117.329 81 1.74258e-05Z" fill="#E51050"/>
<path d="M270.053 115C270.566 115.641 271.072 116.294 271.564 116.96C278.31 142.986 285.267 168.965 292 194.998C277.666 194.979 263.333 195.016 249 194.991C255.608 168.705 262.367 142.448 269.115 116.191C269.344 115.896 269.817 115.297 270.053 115Z" fill="#E51050"/>
<path d="M315.581 386.531C315.594 411.088 315.588 435.652 315.581 460.209C324.706 460.221 333.825 460.234 342.949 460.202C352.269 460.02 362.183 457.589 368.763 451.007C375 444.932 377.079 436.151 376.794 427.932C376.529 419.625 377.837 410.954 374.418 403.045C371.567 395.879 364.897 390.395 357.151 388.256C350.067 386.039 342.521 386.574 335.184 386.519C328.65 386.526 322.116 386.508 315.581 386.531ZM256.311 386.538C248.914 411.107 241.395 435.645 233.986 460.209C240.483 460.228 246.978 460.216 253.481 460.216C254.95 454.846 256.375 449.466 257.845 444.098C265.655 444.066 273.472 444.091 281.284 444.091C282.876 449.466 284.495 454.835 286.074 460.216C292.726 460.221 299.383 460.221 306.041 460.216C298.206 435.652 290.298 411.107 282.486 386.538C273.758 386.501 265.034 386.512 256.311 386.538ZM176.212 391.729C170.066 396.787 167.23 404.593 167.126 412.124C167.113 419.62 167.099 427.121 167.132 434.616C167.249 441.849 169.969 449.253 175.617 454.311C181.794 459.996 190.725 462.245 199.189 462.037C207.116 461.988 215.652 460.496 221.617 455.213C226.714 450.77 228.753 444.128 229.214 437.785C223.126 437.736 217.032 437.779 210.944 437.76C210.692 440.643 210.108 443.743 207.894 445.907C205.336 448.394 201.411 448.947 197.901 448.747C194.423 448.582 190.92 446.973 189.068 444.128C187.144 441.319 186.833 437.877 186.847 434.616C186.866 426.707 186.82 418.797 186.872 410.887C186.891 407.602 187.624 404.131 189.935 401.558C193.601 397.561 200.194 397.067 205.129 399.054C208.903 400.602 210.582 404.556 210.815 408.201C216.831 408.212 222.841 408.219 228.857 408.201C228.683 402.082 226.494 395.751 221.585 391.541C215.789 386.44 207.551 384.801 199.837 384.697C191.47 384.495 182.592 386.361 176.212 391.729ZM463.232 79.007C475.485 79.007 487.731 78.9879 499.985 79.0127C500.005 219.342 500.005 359.67 499.985 499.994C358.486 499.983 216.979 499.994 75.4803 499.987C70.9467 499.908 66.2326 500.408 61.925 498.757C51.648 495.418 44.1614 485.747 44.0646 475.504C43.9665 441.373 44.0968 407.238 44 373.106C45.4885 372.157 46.959 371.176 48.5264 370.346C59.3295 364.284 70.0787 358.129 80.8627 352.036C207.978 352.029 335.086 352.048 462.197 352.023C463.575 352.303 463.122 350.677 463.246 349.964C463.194 259.644 463.226 169.326 463.232 79.007Z" fill="#770829"/>
<path d="M269.422 399C272.226 409.676 275.146 420.321 278 430.986C272.336 431.009 266.664 430.998 261 430.991C263.824 420.334 266.535 409.646 269.422 399Z" fill="#770829"/>
<path d="M336 400.025C341.635 400.286 348.272 398.899 352.84 403.02C357.305 407.297 356.972 413.938 356.967 419.584C356.752 425.704 357.613 431.987 355.92 437.962C354.947 441.367 352.546 444.481 349.122 445.772C344.972 447.449 340.384 446.887 336.014 446.983C335.987 431.332 336.014 415.676 336 400.025Z" fill="#770829"/>
</g>
<defs>
<clipPath id="clip0_2771_83">
<rect width="500" height="500" fill="white"/>
</clipPath>
</defs>
</svg>
