<svg width="500" height="500" viewBox="0 0 500 500" fill="none" xmlns="http://www.w3.org/2000/svg">
<g clip-path="url(#clip0_2771_69)">
<path d="M500 91.4962C500 226.942 500 362.388 499.087 498.913C357.476 500 216.779 500.011 76.0815 499.998C71.5482 499.998 67.015 499.743 62.0422 499.088C49.3006 492.534 44.1361 482.136 44.436 467.436C44.6545 456.723 43.4666 445.975 43.2891 434.67C56.3403 425.793 69.0082 417.491 82.6102 409.401C207.561 409.679 331.577 409.663 455.593 409.974C464.438 409.996 464.637 405.034 464.629 397.884C464.526 300.97 464.551 204.055 464.587 107.14C464.588 102.53 464.983 97.9194 465.957 93.0956C477.813 92.4203 488.906 91.9583 500 91.4962Z" fill="#0C3D91"/>
<path d="M81.6757 409.187C69.0078 417.49 56.3399 425.793 42.6359 434.944C27.7332 444.313 13.8666 452.834 0 461.355C0 325.909 1.16415e-07 190.463 0.662031 53.8371C27.3869 35.4694 53.4497 18.2817 80.1733 1.01951C81.2713 1.01459 81.7086 1.08426 82.0608 1.8393C81.96 2.98547 81.9444 3.44626 81.8944 4.90437C81.7986 140.33 81.7371 274.759 81.6757 409.187Z" fill="#669AE7"/>
<path d="M448.129 3.59501C460.44 8.35477 463.958 19.3045 464.208 32.0243C464.596 51.8212 464.514 71.6291 464.912 92.3705C464.982 97.9192 464.587 102.53 464.585 107.14C464.55 204.055 464.525 300.969 464.628 397.884C464.635 405.033 464.437 409.996 455.591 409.974C331.576 409.663 207.559 409.679 82.6089 409.401C81.7362 274.759 81.7977 140.331 82.3058 4.69189C83.1525 2.62941 83.5527 1.77706 83.9528 0.92471C87.8185 0.668432 91.6841 0.189723 95.5498 0.18821C210.801 0.14314 326.052 0.145325 442.535 0.575647C444.409 1.21589 445.051 1.42052 445.692 1.62516C445.692 1.62516 445.509 1.83096 445.792 2.27893C446.76 3.01628 447.444 3.30565 448.129 3.59501ZM239.755 177.254C258.799 221.311 277.802 265.39 296.973 309.381C298.4 312.656 300.952 317.766 303.116 317.85C320.821 318.541 338.558 318.239 356.295 318.239C356.295 241.971 356.295 167.329 356.295 92.3251C341.609 92.3251 327.494 92.3251 312.151 92.3251C312.151 137.688 312.151 182.419 312.151 227.15C309.147 224.144 307.69 220.998 306.274 217.829C288.702 178.522 271.19 139.183 253.463 99.9594C252.038 96.8063 249.204 92.1615 246.917 92.0851C227.873 91.4496 208.804 91.7246 189.74 91.7246C189.74 167.896 189.74 242.571 189.74 318.231C204.417 318.231 218.642 318.231 234.311 317.636C234.984 314.006 236.228 310.378 236.241 306.744C236.382 268.034 236.246 229.323 236.435 190.613C236.458 185.808 237.928 181.012 239.755 177.254Z" fill="#186BFE"/>
<path d="M83.4773 0.752686C83.553 1.77725 83.1528 2.6296 82.3404 3.69477C81.9437 3.44679 81.9594 2.986 82.044 1.82161C82.113 1.11801 82.143 1.14691 82.143 1.14691C82.4292 0.958098 82.7153 0.769286 83.4773 0.752686Z" fill="#0B62FF"/>
<path d="M81.4956 0.944401C82.1433 1.1468 82.1132 1.1179 82.1294 1.13613C81.7083 1.08468 81.271 1.01501 80.1729 1.01993C79.5121 1.09453 79.6453 1.01568 79.5908 1.04696C79.9736 0.966165 80.4108 0.854083 81.4956 0.944401Z" fill="#186BFE"/>
<path d="M445.853 1.23292C445.05 1.42037 444.409 1.21574 443.433 0.598903C443.491 0.056474 443.885 -0.0737529 444.85 0.0356014C445.422 0.275187 446.014 0.840831 445.853 1.23292Z" fill="#669AE7"/>
<path d="M447.854 3.0592C447.446 3.30588 446.761 3.01651 445.865 2.16091C446.295 1.90416 446.937 2.21365 447.854 3.0592Z" fill="#0B62FF"/>
<path d="M232.868 318.231C218.644 318.231 204.419 318.231 189.741 318.231C189.741 242.571 189.741 167.896 189.741 91.7243C208.805 91.7243 227.875 91.4494 246.919 92.0849C249.206 92.1612 252.04 96.8061 253.465 99.9592C271.192 139.182 288.703 178.522 306.275 217.829C307.692 220.997 309.148 224.144 312.152 227.15C312.152 182.419 312.152 137.688 312.152 92.3248C327.496 92.3248 341.611 92.3248 356.296 92.3248C356.296 167.328 356.296 241.971 356.296 318.239C338.559 318.239 320.822 318.541 303.118 317.85C300.953 317.766 298.402 312.656 296.975 309.381C277.804 265.39 258.801 221.311 239.137 176.025C237.245 171.885 235.974 168.973 234.702 166.061C234.091 166.302 233.479 166.543 232.868 166.785C232.868 217.267 232.868 267.749 232.868 318.231Z" fill="#FCFDFF"/>
<path d="M233.589 317.933C232.867 267.749 232.867 217.267 232.867 166.784C233.478 166.543 234.09 166.302 234.701 166.061C235.973 168.973 237.244 171.885 238.622 175.504C237.928 181.012 236.459 185.808 236.435 190.613C236.246 229.322 236.383 268.034 236.241 306.744C236.228 310.377 234.984 314.005 233.589 317.933Z" fill="#0D63FF"/>
</g>
<defs>
<clipPath id="clip0_2771_69">
<rect width="500" height="500" fill="white"/>
</clipPath>
</defs>
</svg>
