<svg width="500" height="500" viewBox="0 0 500 500" fill="none" xmlns="http://www.w3.org/2000/svg">
<g clip-path="url(#clip0_2771_71)">
<path d="M162.599 378.426C177.281 399.078 191.571 419.739 206.457 439.965C221.258 460.074 236.658 479.746 252.093 500C243.835 499.659 235.617 499.624 227.454 498.929C198.306 496.446 170.402 489.103 143.808 476.923C122.481 467.155 103.02 454.51 85.2573 439.206C82.4687 436.804 81.525 434.622 82.2183 430.833C87.1768 403.739 91.5237 376.53 96.6698 349.472C104.337 309.161 113.496 269.188 126.204 230.104C134.78 203.727 144.908 177.995 159.872 154.479C176.634 128.139 196.507 104.506 222.034 86.0409C254.046 62.8853 289.689 54.0496 328.813 59.6125C348.906 62.4695 366.585 70.8845 381.016 85.1001C393.674 97.5693 401.143 113.001 402.576 130.786C404.937 160.107 397.524 186.701 378.34 209.425C367.992 221.683 354.473 229.512 339.433 234.802C322.405 240.791 304.632 243.316 286.89 246.023C265.701 249.257 244.426 252.074 223.39 256.113C202.987 260.03 183.105 266.24 165.083 276.828C157.346 281.373 150.097 287.12 143.629 293.356C130.74 305.783 128.416 319.001 136.56 335.17C142.419 346.802 149.696 357.726 156.406 368.926C158.309 372.103 160.442 375.142 162.599 378.426Z" fill="#0183DB"/>
<path d="M297.999 422.849C275.504 394.375 253.778 365.609 233.707 335.627C229.871 329.896 226.11 324.115 222 317.881C227.9 317.016 233.269 316.068 238.676 315.464C263.226 312.724 287.685 309.605 311.595 303.011C356.45 290.639 395.244 268.425 426.147 233.284C449.638 206.571 464.192 175.527 470.657 140.627C470.988 138.839 471.428 137.072 471.882 135C538.642 258.808 483.407 429.146 339.235 484C327.812 462.15 312.882 442.649 297.999 422.849Z" fill="#0183DB"/>
<path d="M10.8341 173.206C51.0101 51.986 168.216 -12.6665 280 2.07028C276.55 3.18361 273.854 3.99067 271.2 4.9198C238.989 16.1969 210.63 33.9842 184.806 56.1007C163.21 74.596 143.165 94.5632 126.065 117.374C106.871 142.977 91.4387 170.735 78.4504 199.948C69.728 219.567 64.4428 240.282 58.5883 260.796C51.0579 287.183 45.2674 314.002 40.5462 341.043C38.4443 353.081 36.3214 365.116 34.0591 378C31.52 373.38 29.2322 369.349 27.0658 365.254C12.9235 338.519 4.46168 310.043 0.883584 280.034C-3.41364 243.992 -0.425731 208.647 10.5436 174.016C10.6056 173.821 10.6913 173.633 10.8341 173.206Z" fill="#0283DA"/>
</g>
<defs>
<clipPath id="clip0_2771_71">
<rect width="500" height="500" fill="white"/>
</clipPath>
</defs>
</svg>
