<svg width="500" height="500" viewBox="0 0 500 500" fill="none" xmlns="http://www.w3.org/2000/svg">
<g clip-path="url(#clip0_2771_95)">
<path d="M81.0889 0.129273C81.9849 0.0864845 82.8809 0.00626356 83.7769 0.00621683C200.868 0.000233641 317.959 -0.00295162 435.049 0.0037523C449.28 0.00456597 459.68 7.34442 462.989 19.8614C463.631 22.2906 463.774 24.8847 463.788 27.4044C463.882 44.1563 463.879 60.9087 463.953 78.1313C464 169.302 464 260.002 464 351C462.223 351 460.807 351 459.392 351C334.353 351 209.315 351 84.2763 350.999C83.1962 350.999 82.1161 350.981 81.0233 350.734C81.0058 236.245 81.0003 121.994 81 7.74207C81 5.20447 81.058 2.66687 81.0889 0.129273ZM291.468 239.207C294.087 244.123 296.595 249.094 299.347 253.942C306.058 265.766 315.436 274.502 330.224 276.552C339.95 277.9 349.593 277.784 358.956 274.398C360.857 273.711 361.762 272.827 361.724 270.72C361.575 262.682 361.668 254.639 361.658 246.598C361.657 245.775 361.575 244.951 361.526 244.056C360.791 243.976 360.269 243.856 359.752 243.872C351.599 244.122 345.884 240.71 342.157 233.919C337.537 225.502 332.696 217.191 327.968 208.826C324.976 203.532 322.014 198.223 318.944 192.751C319.837 192.193 320.577 191.745 321.303 191.276C325.666 188.457 330.304 185.942 334.332 182.749C343.748 175.283 350.109 165.883 351.055 154.156C351.768 145.323 351.485 136.402 351.283 127.528C351.205 124.107 350.48 120.608 349.444 117.312C344.731 102.312 333.746 92.6015 319.012 86.2457C305.414 80.3801 290.953 78.5007 276.159 78.4671C251.131 78.4104 226.104 78.4833 201.076 78.4198C198.716 78.4139 197.843 78.8679 197.846 81.3285C197.922 144.387 197.915 207.446 197.856 270.505C197.854 272.639 198.525 273.214 200.75 273.202C216.054 273.117 231.359 273.154 246.664 273.152C247.623 273.151 248.583 273.152 249.859 273.152C249.859 271.506 249.859 270.175 249.859 268.844C249.858 247.937 249.901 227.03 249.8 206.124C249.788 203.651 250.565 202.978 253.133 203.059C258.798 203.238 264.475 203.165 270.146 203.091C271.783 203.07 272.747 203.502 273.504 204.963C279.375 216.291 285.337 227.577 291.468 239.207Z" fill="#176BFF"/>
<path d="M80.7532 351.389C81.8326 351.398 82.912 351.416 83.9913 351.416C208.947 351.417 333.903 351.417 458.859 351.417C460.274 351.417 461.688 351.417 463.465 351.417C463.465 260.243 463.465 169.367 463.481 78.246C475.618 78 487.739 78 500 78C500 218.683 500 359.17 500 499.893C499.163 499.929 498.302 499.999 497.44 499.999C355.834 500.001 214.228 500 72.6214 499.995C59.9117 499.994 49.9163 494.002 45.8514 483.432C44.5951 480.166 44.0909 476.476 44.0773 472.977C43.9485 439.734 43.9997 406.49 44.0927 372.868C45.2084 371.824 46.1977 371.108 47.2579 370.501C58.4165 364.12 69.5864 357.757 80.7532 351.389ZM227.63 424.99C235.055 417.772 234.32 409.08 232.072 400.434C231.336 397.603 229.07 394.808 226.766 392.72C221.219 387.692 214 386.275 206.598 386.116C196.62 385.901 186.633 386.049 176.65 386.052C176.138 386.052 175.626 386.154 174.855 386.236C174.855 387.274 174.855 388.186 174.855 389.099C174.855 411.056 174.855 433.013 174.856 454.971C174.856 456.242 174.719 457.535 174.931 458.775C175.02 459.294 175.848 460.088 176.351 460.096C182.352 460.188 188.355 460.156 194.725 460.156C194.725 451.113 194.725 442.359 194.725 433.464C197.153 433.464 199.238 433.281 201.259 433.54C202.269 433.67 203.589 434.396 204.04 435.211C206.865 440.315 209.531 445.5 212.163 450.698C216.68 459.62 223.185 463.433 234.833 460.866C236.347 460.532 237.148 459.884 237.068 458.259C236.943 455.722 236.984 453.173 237.068 450.632C237.111 449.335 236.607 448.78 235.239 448.737C232.504 448.65 230.815 447.115 229.608 444.965C228.557 443.094 227.493 441.229 226.444 439.356C224.616 436.092 222.795 432.825 221.03 429.664C223.332 428.055 225.344 426.648 227.63 424.99ZM260.116 451.276C260.822 453.549 261.629 455.8 262.199 458.103C262.602 459.73 263.463 460.213 265.203 460.192C272.305 460.102 279.411 460.058 286.51 460.21C288.724 460.257 289.394 459.377 289.914 457.598C295.808 437.446 301.775 417.312 307.713 397.171C308.779 393.556 309.803 389.93 310.882 386.185C303.994 386.185 297.554 386.185 290.979 386.185C286.179 405.404 281.404 424.519 276.63 443.634C275.836 443.334 275.696 443.068 275.618 442.787C273.539 435.248 271.453 427.711 269.395 420.166C266.465 409.428 263.576 398.679 260.591 387.954C260.391 387.235 259.543 386.141 258.975 386.129C252.629 385.999 246.28 386.047 239.665 386.047C246.51 407.895 253.244 429.391 260.116 451.276ZM357.21 448.844C357.21 432.502 357.21 416.159 357.21 399.463C364.213 399.463 370.891 399.463 377.545 399.463C377.545 394.823 377.545 390.54 377.545 386.209C357.275 386.209 337.181 386.209 317.074 386.209C317.074 390.735 317.074 395.082 317.074 399.631C323.963 399.631 330.594 399.631 337.614 399.631C337.614 419.868 337.614 439.897 337.614 459.956C344.34 459.956 350.669 459.956 357.21 459.956C357.21 456.29 357.21 452.822 357.21 448.844Z" fill="#0D3D91"/>
<path d="M81 350.937C69.8481 357.537 58.6804 363.895 47.524 370.27C46.464 370.876 45.475 371.592 44.3449 372.397C41.3438 374.013 38.3905 375.394 35.5684 376.981C24.6886 383.101 13.8517 389.288 2.99512 395.445C2.17767 395.908 1.33157 396.327 0.0560471 397C0.0560471 395.712 0.0560721 394.821 0.0560554 393.93C0.0539471 278.774 0.0577436 163.618 1.08614e-06 48.4618C-0.000979109 46.4996 0.661377 45.4304 2.41277 44.4409C24.9917 31.6842 47.5277 18.8599 70.0746 6.05284C73.6147 4.04202 77.1553 2.03199 80.8806 0C81.0346 2.51856 80.9767 5.05872 80.9767 7.59888C80.977 121.966 80.9825 236.333 81 350.937Z" fill="#679BE7"/>
<path d="M290.593 239.481C284.556 227.955 278.589 216.609 272.714 205.22C271.956 203.752 270.991 203.317 269.353 203.339C263.678 203.413 257.997 203.486 252.328 203.306C249.758 203.224 248.98 203.901 248.992 206.387C249.093 227.405 249.051 248.424 249.051 269.443C249.051 270.781 249.051 272.119 249.051 273.774C247.774 273.774 246.814 273.773 245.853 273.774C230.537 273.776 215.221 273.739 199.906 273.824C197.679 273.837 197.007 273.258 197.009 271.113C197.068 207.717 197.076 144.321 197 80.9243C196.997 78.4506 197.87 77.994 200.232 78.0001C225.278 78.0638 250.325 77.9906 275.37 78.0476C290.175 78.0813 304.647 79.9708 318.255 85.8678C333 92.2576 343.993 102.02 348.71 117.1C349.746 120.414 350.473 123.931 350.551 127.371C350.752 136.293 351.036 145.261 350.323 154.142C349.376 165.932 343.01 175.381 333.587 182.887C329.556 186.098 324.915 188.626 320.548 191.46C319.822 191.931 319.082 192.382 318.188 192.943C321.26 198.444 324.224 203.782 327.218 209.104C331.95 217.514 336.794 225.869 341.418 234.331C345.148 241.158 350.866 244.589 359.026 244.337C359.544 244.321 360.066 244.442 360.802 244.522C360.85 245.422 360.932 246.25 360.933 247.078C360.943 255.162 360.851 263.248 360.999 271.329C361.038 273.447 360.132 274.336 358.229 275.027C348.859 278.431 339.209 278.547 329.476 277.192C314.677 275.131 305.292 266.349 298.576 254.462C295.822 249.587 293.312 244.59 290.593 239.481ZM297.874 155.532C299.714 146.682 299.137 137.783 298.414 128.89C298.319 127.73 297.841 126.571 297.384 125.47C293.716 116.634 286.104 112.857 276.777 112.161C268.455 111.539 260.056 111.888 251.697 111.645C249.327 111.576 248.893 112.407 248.901 114.43C248.975 132.366 248.944 150.303 248.953 168.239C248.953 169.143 249.036 170.046 249.09 171.151C250.164 171.151 250.958 171.156 251.752 171.15C259.669 171.088 267.589 171.111 275.501 170.908C277.807 170.849 280.155 170.334 282.379 169.7C289.907 167.551 295.325 163.212 297.874 155.532Z" fill="#FDFEFF"/>
<path d="M227.459 425.296C225.319 426.836 223.316 428.249 221.024 429.866C222.781 433.041 224.594 436.323 226.415 439.602C227.459 441.484 228.519 443.357 229.565 445.237C230.767 447.397 232.449 448.939 235.173 449.026C236.535 449.07 237.037 449.627 236.994 450.93C236.91 453.482 236.87 456.043 236.995 458.593C237.074 460.224 236.277 460.876 234.769 461.211C223.17 463.79 216.692 459.959 212.194 450.996C209.573 445.775 206.918 440.566 204.105 435.438C203.656 434.619 202.341 433.89 201.336 433.76C199.323 433.5 197.247 433.683 194.829 433.683C194.829 442.619 194.829 451.414 194.829 460.498C188.485 460.498 182.508 460.53 176.532 460.438C176.031 460.43 175.206 459.632 175.118 459.111C174.907 457.865 175.043 456.566 175.043 455.289C175.043 433.23 175.042 411.172 175.042 389.114C175.042 388.197 175.042 387.28 175.042 386.237C175.81 386.155 176.32 386.053 176.83 386.053C186.771 386.05 196.716 385.901 206.652 386.117C214.023 386.277 221.211 387.701 226.735 392.751C229.03 394.849 231.287 397.657 232.02 400.501C234.258 409.187 234.99 417.919 227.459 425.296ZM206.363 421.011C211.118 419.904 213.387 417.33 213.528 412.751C213.593 410.627 213.614 408.491 213.465 406.373C213.257 403.418 211.701 401.102 208.832 399.995C204.315 398.253 199.584 399.014 194.992 399.103C194.992 406.689 194.992 413.958 194.992 421.129C198.778 421.129 202.346 421.129 206.363 421.011Z" fill="#FAFBFC"/>
<path d="M259.606 450.891C252.729 429.252 245.92 407.806 239 386.009C245.687 386.009 252.107 385.961 258.522 386.091C259.096 386.102 259.954 387.193 260.156 387.911C263.174 398.611 266.095 409.335 269.057 420.049C271.138 427.575 273.246 435.095 275.348 442.616C275.427 442.897 275.568 443.162 276.372 443.461C281.198 424.391 286.025 405.321 290.879 386.146C297.526 386.146 304.036 386.146 311 386.146C309.909 389.883 308.874 393.5 307.797 397.107C301.793 417.201 295.761 437.287 289.802 457.393C289.276 459.167 288.599 460.045 286.36 459.998C279.183 459.847 271.999 459.891 264.819 459.98C263.06 460.002 262.189 459.52 261.782 457.896C261.206 455.598 260.389 453.353 259.606 450.891Z" fill="#FAFBFC"/>
<path d="M356.824 449.105C356.824 452.841 356.824 456.322 356.824 460C350.333 460 344.053 460 337.38 460C337.38 439.872 337.38 419.774 337.38 399.468C330.415 399.468 323.835 399.468 317 399.468C317 394.903 317 390.542 317 386C336.95 386 356.888 386 377 386C377 390.346 377 394.643 377 399.3C370.398 399.3 363.771 399.3 356.824 399.3C356.824 416.053 356.824 432.452 356.824 449.105Z" fill="#FBFBFC"/>
<path d="M298.68 155.705C296.17 163.127 290.665 167.429 283.015 169.559C280.756 170.189 278.37 170.699 276.027 170.758C267.988 170.959 259.941 170.936 251.897 170.997C251.09 171.003 250.283 170.998 249.192 170.998C249.137 169.903 249.053 169.007 249.053 168.111C249.044 150.329 249.075 132.547 249 114.765C248.992 112.759 249.433 111.936 251.84 112.004C260.334 112.245 268.868 111.899 277.324 112.515C286.8 113.206 294.534 116.95 298.261 125.71C298.726 126.802 299.211 127.951 299.307 129.1C300.042 137.917 300.628 146.74 298.68 155.705Z" fill="#1A6DFE"/>
<path d="M206.395 420.942C202.517 421 198.87 421 195 421C195 413.915 195 406.734 195 399.239C199.694 399.151 204.531 398.399 209.148 400.12C212.082 401.214 213.673 403.501 213.885 406.421C214.037 408.514 214.016 410.624 213.949 412.723C213.806 417.246 211.486 419.789 206.395 420.942Z" fill="#124193"/>
</g>
<defs>
<clipPath id="clip0_2771_95">
<rect width="500" height="500" fill="white"/>
</clipPath>
</defs>
</svg>
